<svg width="10" height="8" viewBox="0 0 10 8" fill="none" xmlns="http://www.w3.org/2000/svg">
<path d="M3.586 7.32859C3.4534 7.32856 3.32624 7.27586 3.2325 7.18209L0.403997 4.35359C0.312918 4.25929 0.262521 4.13299 0.26366 4.00189C0.264799 3.87079 0.317384 3.74538 0.410088 3.65268C0.502792 3.55998 0.628198 3.50739 0.759297 3.50625C0.890395 3.50511 1.0167 3.55551 1.111 3.64659L3.586 6.12159L8.889 0.81809C8.9833 0.727011 9.1096 0.676614 9.2407 0.677753C9.3718 0.678892 9.4972 0.731477 9.58991 0.824181C9.68261 0.916885 9.7352 1.04229 9.73633 1.17339C9.73747 1.30449 9.68708 1.43079 9.596 1.52509L3.9395 7.18209C3.84575 7.27586 3.7186 7.32856 3.586 7.32859Z" fill="#59BC69"/>
</svg>