<?xml version="1.0" standalone="no"?>
<!DOCTYPE svg PUBLIC "-//W3C//DTD SVG 20010904//EN"
 "http://www.w3.org/TR/2001/REC-SVG-20010904/DTD/svg10.dtd">
<svg version="1.0" xmlns="http://www.w3.org/2000/svg"
 width="1024.000000pt" height="1024.000000pt" viewBox="0 0 1024.000000 1024.000000"
 preserveAspectRatio="xMidYMid meet">
<metadata>
Created by potrace 1.14, written by Peter Selinger 2001-2017
</metadata>
<g transform="translate(0.000000,1024.000000) scale(0.100000,-0.100000)"
fill="#000000" stroke="none">
<path d="M0 9945 l0 -295 28 0 c15 0 38 -7 50 -16 45 -31 21 -134 -30 -134 -9
0 -23 -3 -32 -6 -15 -6 -16 -149 -16 -1525 0 -835 2 -1519 5 -1519 2 0 21 11
41 25 63 43 126 29 139 -31 14 -60 39 -131 65 -184 8 -18 2 -40 -12 -40 -6 0
-23 -11 -40 -25 -33 -28 -115 -55 -165 -55 l-33 0 0 -140 c0 -132 1 -140 20
-140 32 0 68 -21 74 -44 9 -34 7 -73 -6 -101 -9 -20 -18 -25 -50 -25 l-38 0 0
-91 0 -92 41 7 c32 5 52 1 90 -16 55 -26 66 -47 48 -89 -9 -23 -9 -33 0 -42 6
-6 11 -18 11 -26 0 -11 -4 -9 -15 6 -18 26 -37 21 -61 -14 -15 -24 -15 -30 -1
-82 9 -31 22 -77 28 -103 13 -48 37 -68 82 -68 13 0 33 -7 46 -16 18 -13 28
-14 47 -5 24 10 25 15 23 98 -2 78 1 94 24 138 15 28 31 81 37 121 5 38 21 96
35 127 25 53 34 143 22 212 -5 27 -73 32 -138 11 -64 -21 -83 -20 -115 7 -23
20 -26 30 -25 83 0 51 -3 62 -21 74 -46 32 -58 50 -58 89 0 33 6 44 38 71 42
35 75 35 145 -1 21 -10 39 -19 42 -19 2 0 17 14 34 32 29 31 29 31 64 15 39
-19 54 -49 61 -122 16 -181 28 -212 76 -199 14 4 33 6 43 6 26 -1 31 22 12 51
-41 63 -11 127 60 127 37 0 43 -3 58 -35 26 -55 68 -72 170 -66 33 1 35 23 7
66 -24 36 -25 60 -4 132 15 52 15 55 -3 68 -10 8 -26 15 -36 15 -28 0 -75 28
-88 52 -20 37 -2 115 37 163 18 23 34 46 34 51 0 5 -14 17 -30 26 -34 19 -40
56 -14 82 12 12 20 13 35 6 10 -6 19 -16 19 -23 0 -17 59 -52 90 -54 83 -5
170 -57 170 -102 0 -18 6 -21 46 -21 29 0 56 7 73 19 14 10 37 21 51 22 17 3
24 9 22 22 -2 12 4 17 23 17 14 0 25 -5 25 -10 0 -17 49 -62 60 -55 5 3 18 1
29 -4 17 -9 20 -7 26 19 4 17 11 30 16 30 14 0 11 -43 -6 -67 -13 -18 -12 -25
6 -64 18 -35 20 -52 13 -93 -16 -107 -3 -173 55 -276 10 -18 71 -16 86 3 14
16 52 37 67 37 14 0 21 10 56 85 38 81 41 88 48 125 3 19 11 41 16 48 6 6 17
40 25 75 27 116 27 110 -6 134 -36 27 -51 74 -44 137 6 51 7 51 -66 37 -24 -5
-57 -5 -73 0 -27 7 -31 5 -43 -24 -16 -38 -48 -77 -63 -77 -19 0 -40 43 -40
82 0 34 5 40 48 67 57 35 70 67 70 176 0 53 6 83 24 121 13 28 29 55 35 58 6
4 11 16 11 27 0 24 18 44 47 53 29 9 46 0 67 -38 10 -19 28 -39 41 -46 14 -7
27 -26 31 -44 3 -17 11 -39 16 -50 9 -17 11 -17 36 7 40 37 70 40 97 11 47
-51 79 -22 76 70 -2 62 12 96 40 96 5 0 21 26 35 57 35 80 59 103 107 103 75
0 117 -44 117 -121 0 -35 -5 -43 -45 -71 -25 -18 -46 -39 -46 -47 -8 -99 -16
-146 -36 -193 -12 -29 -13 -43 -3 -72 6 -20 16 -36 21 -36 5 0 8 -5 6 -12 -3
-16 34 -23 43 -8 5 8 15 -1 29 -24 12 -20 19 -40 16 -46 -14 -23 17 -39 73
-39 60 0 71 -2 114 -19 18 -8 28 -20 30 -39 6 -57 -4 -89 -43 -133 -29 -32
-36 -46 -27 -52 7 -4 56 -5 108 -2 52 4 107 6 122 7 35 0 46 29 23 63 -26 39
-29 120 -6 153 10 14 41 74 69 132 37 77 60 113 86 133 41 31 45 56 19 128
-14 39 -14 51 -3 77 7 18 26 39 42 47 27 14 29 19 23 47 -15 72 -16 119 -5
147 11 27 17 30 61 30 45 0 51 -3 69 -32 27 -44 25 -62 -10 -120 -34 -54 -33
-83 3 -94 12 -4 35 -17 50 -30 21 -18 35 -22 55 -17 15 3 30 10 33 15 3 5 39
10 80 11 41 2 103 9 138 17 l63 14 24 -27 c20 -23 23 -36 20 -86 -2 -32 -9
-67 -15 -79 -12 -23 -58 -37 -109 -33 -52 4 -60 -9 -48 -76 19 -98 25 -104
112 -102 45 1 80 -3 87 -10 20 -20 45 -13 45 15 0 14 9 36 21 48 21 22 46 62
73 114 11 21 8 27 -25 58 -39 35 -87 123 -87 159 0 42 13 66 44 79 56 23 96
27 126 11 41 -21 43 -20 36 24 -5 34 -3 42 19 59 21 17 31 18 65 10 35 -9 44
-8 61 8 35 32 40 49 24 88 -8 19 -15 51 -15 70 0 32 5 38 43 57 51 27 113 28
154 4 25 -14 32 -27 37 -63 12 -91 7 -168 -13 -194 -11 -13 -29 -50 -40 -83
-21 -60 -45 -95 -66 -95 -18 0 -41 -32 -43 -58 0 -13 -12 -39 -26 -57 -14 -19
-26 -36 -26 -39 0 -3 17 -8 38 -12 20 -4 51 -18 68 -31 27 -20 39 -23 74 -17
35 6 44 12 55 38 18 42 5 136 -19 136 -7 0 -21 9 -30 19 -15 16 -15 22 -4 40
7 12 23 21 36 21 17 0 27 10 42 44 24 57 65 80 125 71 40 -5 45 -4 65 25 33
46 73 63 142 58 36 -3 58 0 59 6 5 48 -2 106 -15 131 -9 17 -16 47 -16 69 l0
38 -66 -7 c-77 -8 -113 3 -137 44 -34 58 -22 87 66 154 21 15 37 32 37 37 0 5
-18 14 -41 20 -22 6 -49 20 -59 30 -27 27 -44 94 -44 182 -1 71 1 79 27 106
36 37 97 48 144 25 40 -18 60 -12 73 23 26 68 108 132 148 116 20 -7 58 -45
55 -54 -2 -5 1 -8 6 -8 6 0 7 -16 4 -35 -4 -23 -2 -35 6 -35 6 0 11 -7 11 -15
0 -8 -6 -15 -13 -15 -8 0 -22 -9 -32 -20 -15 -17 -16 -26 -7 -62 6 -24 16 -68
23 -98 16 -78 21 -85 60 -83 19 0 49 1 67 2 22 1 34 7 38 19 16 48 38 92 61
116 23 25 31 27 72 23 83 -10 110 -19 126 -43 12 -18 24 -24 48 -23 18 1 37 1
42 -1 6 -1 19 -2 31 -1 18 1 21 8 22 54 l1 52 -34 1 c-31 0 -75 32 -75 54 0 4
-24 32 -54 62 -43 44 -56 64 -65 107 -16 74 -7 86 83 115 10 3 36 1 58 -5 36
-9 43 -8 64 12 13 13 32 40 41 61 10 23 25 40 38 42 11 2 43 9 71 15 28 5 60
8 71 5 26 -7 63 12 63 31 0 7 -6 20 -14 28 -12 12 -15 87 -7 163 0 6 12 23 26
37 19 18 27 40 32 78 4 46 11 59 41 85 l35 31 -15 39 c-9 22 -19 61 -23 86 -4
27 -13 49 -22 52 -12 5 -12 8 2 22 9 9 18 14 21 11 9 -9 45 26 59 56 17 40 -1
104 -31 111 -12 3 -42 24 -66 46 -23 22 -48 40 -54 40 -6 0 -17 7 -24 15 -7 8
-26 15 -43 15 -46 0 -107 22 -118 42 -5 10 -18 18 -29 18 -10 0 -25 6 -32 14
-8 7 -33 17 -55 21 -23 3 -49 15 -58 25 -17 19 -18 19 -54 1 -20 -10 -57 -19
-84 -20 -38 -1 -51 3 -67 21 -11 13 -33 38 -49 55 -20 22 -30 45 -32 70 -4 67
-1 72 39 78 20 4 52 11 70 17 38 11 86 -1 149 -41 39 -23 53 -50 24 -44 -6 2
-11 -4 -11 -12 0 -8 5 -15 10 -15 6 0 10 5 10 10 0 14 43 13 58 -2 18 -18 27
-1 14 27 -16 35 -15 105 2 146 7 19 16 61 20 94 5 40 18 79 41 121 19 34 35
71 35 81 2 40 35 85 72 98 46 15 80 2 125 -49 23 -27 39 -36 62 -36 40 0 46
17 28 72 l-15 43 -1591 3 -1591 2 0 -32 c0 -25 10 -41 45 -74 41 -37 45 -45
45 -87 0 -41 3 -48 29 -62 62 -31 79 -99 40 -150 -19 -23 -27 -26 -57 -20 -19
3 -43 12 -53 18 -24 15 -43 70 -35 102 10 39 -27 43 -76 8 -32 -22 -51 -28
-88 -27 -49 2 -67 9 -135 53 -23 15 -54 26 -74 26 -27 0 -37 6 -51 30 -12 22
-26 31 -53 36 -21 3 -39 8 -40 10 -43 56 -49 73 -44 120 l6 49 -519 0 c-320 0
-520 -4 -520 -9 0 -6 12 -16 27 -23 30 -14 41 -44 24 -61 -8 -8 -16 -7 -28 5
-15 16 -18 15 -45 -7 -45 -38 -89 -32 -113 16 -8 15 -15 39 -15 54 l0 25 -430
0 -430 0 0 -295z m5176 254 c8 -14 -15 -59 -31 -59 -14 0 -38 48 -30 61 8 13
52 11 61 -2z m-4861 -55 c30 -19 31 -37 7 -72 -10 -15 -22 -35 -25 -44 -4 -10
-14 -18 -23 -18 -10 0 -41 8 -71 18 -40 13 -55 23 -60 40 -8 35 15 72 46 72
14 0 33 5 41 10 22 15 58 12 85 -6z m4584 -78 c7 -8 11 -27 9 -42 -6 -52 -139
-110 -155 -69 -8 22 26 45 56 38 15 -4 22 -2 18 4 -3 5 -2 26 4 46 8 29 15 37
33 37 13 0 29 -6 35 -14z m-1693 -41 c73 -30 88 -171 22 -206 -27 -15 -109
-14 -137 1 -24 13 -45 81 -36 120 11 51 59 97 103 99 7 1 28 -6 48 -14z m1303
-166 c17 -16 21 -30 19 -62 -3 -38 -8 -45 -50 -72 -26 -16 -49 -36 -53 -44 -3
-8 0 -36 6 -61 22 -87 -14 -138 -89 -125 -90 15 -101 159 -16 200 32 15 34 19
28 51 -8 46 0 76 32 107 34 34 90 37 123 6z m-3049 -58 c0 -31 -23 -50 -47
-40 -33 12 -28 49 7 61 22 7 40 -2 40 -21z m1608 -36 c28 -33 28 -74 1 -109
-17 -21 -29 -26 -65 -26 -75 0 -113 57 -83 124 24 52 105 58 147 11z m-2151
-45 c7 -8 13 -33 13 -56 0 -43 -23 -75 -58 -80 -9 -2 -32 -6 -50 -9 -41 -8
-62 8 -62 46 0 19 6 30 20 34 12 4 32 24 47 46 20 30 31 38 52 37 14 -1 31 -9
38 -18z m3166 -215 c20 -43 22 -103 2 -128 -7 -10 -32 -21 -54 -24 -35 -5 -44
-2 -69 24 -19 18 -32 45 -37 72 -6 36 -4 46 16 67 18 19 32 24 74 24 49 0 52
-2 68 -35z m833 -1 c24 -14 44 -29 44 -32 0 -4 11 -20 23 -36 20 -25 34 -30
86 -37 39 -4 75 -16 99 -31 20 -14 54 -30 75 -37 20 -7 37 -16 37 -21 0 -15
84 -49 110 -44 38 8 61 -16 67 -68 7 -61 -3 -110 -27 -138 -10 -12 -20 -26
-22 -32 -2 -6 -23 -10 -46 -10 -30 1 -49 8 -69 26 -33 30 -30 30 -67 11 -16
-8 -45 -18 -66 -21 -33 -5 -42 -2 -77 30 -22 20 -45 36 -51 36 -7 0 -18 -13
-26 -28 -8 -16 -22 -34 -30 -41 -9 -7 -18 -34 -22 -60 -8 -64 -34 -113 -67
-129 -38 -18 -51 -11 -87 45 -24 38 -29 55 -25 83 9 53 -9 89 -45 97 -40 8
-84 64 -105 136 -9 31 -20 59 -25 62 -5 3 -16 19 -24 37 -37 73 -6 153 65 164
21 4 48 15 60 25 12 10 25 17 28 14 4 -2 27 2 52 10 64 20 85 18 135 -11z
m-1924 -11 c56 -50 -22 -158 -88 -122 -56 30 -53 73 9 117 38 26 54 28 79 5z
m-1207 -87 c8 -19 19 -37 24 -41 9 -5 111 -15 269 -24 7 -1 20 -17 28 -37 17
-40 12 -78 -16 -134 -10 -19 -21 -68 -25 -108 -11 -107 -30 -127 -129 -131
-41 -1 -83 2 -94 8 -15 8 -33 3 -83 -20 -55 -27 -72 -30 -124 -26 -120 9 -204
76 -213 169 -4 41 -1 53 18 73 24 26 54 33 65 15 3 -5 32 -10 64 -10 l59 0 5
58 c16 165 25 206 47 224 12 10 38 18 57 18 29 0 36 -5 48 -34z m-1187 -182
c22 -5 35 -16 47 -40 20 -43 12 -70 -25 -89 -41 -21 -76 -19 -100 7 -26 28
-26 68 1 102 22 28 29 30 77 20z m2116 -33 c12 -13 19 -44 23 -104 6 -82 5
-86 -20 -111 -31 -31 -75 -34 -108 -7 -19 15 -24 30 -27 84 -4 56 -1 68 17 86
12 12 30 21 41 21 12 0 25 10 32 25 13 30 20 31 42 6z m-1532 -85 c17 -12 17
-14 0 -30 -21 -19 -58 -21 -68 -5 -4 7 4 20 17 30 28 22 29 22 51 5z m3342
-142 c16 -43 -15 -85 -56 -76 -23 4 -23 21 -1 52 28 42 47 50 57 24z m135 -84
c39 0 72 -37 95 -104 l19 -56 -21 -23 c-15 -16 -22 -36 -22 -65 0 -41 -1 -42
-72 -82 -87 -48 -132 -52 -172 -15 -21 20 -26 33 -26 73 0 52 18 84 72 130 21
18 28 33 28 58 0 40 37 97 58 89 7 -3 26 -5 41 -5z m-2323 -68 c17 -11 34 -48
34 -74 0 -21 56 -78 76 -78 17 0 54 -45 54 -67 0 -26 -51 -137 -76 -164 -27
-30 -99 -52 -143 -45 -45 7 -60 -6 -39 -32 24 -30 48 -80 48 -99 0 -26 -47
-73 -74 -73 -34 0 -84 19 -90 36 -3 7 -24 21 -47 31 -56 22 -86 85 -82 168 2
49 8 64 38 101 21 26 59 55 91 71 50 24 72 53 40 53 -20 0 -66 47 -62 62 2 7
7 26 11 41 3 16 18 40 32 53 23 21 35 24 102 24 42 0 81 -4 87 -8z m1784 -7
c37 -19 48 -38 42 -75 -7 -46 -36 -70 -86 -70 -58 0 -86 27 -82 77 7 70 63
101 126 68z m-2410 -187 c-1 -29 -22 -58 -44 -58 -18 0 -21 31 -6 61 15 27 50
25 50 -3z m1861 -85 c5 -13 6 -46 3 -74 -5 -42 -3 -50 12 -54 11 -4 37 -15 59
-25 22 -11 61 -24 87 -31 56 -13 87 -43 95 -92 14 -87 -27 -157 -91 -157 -19
0 -47 -5 -63 -11 -82 -31 -144 -2 -188 91 l-28 58 22 49 c13 26 30 61 38 77
13 24 14 30 2 37 -66 37 -84 56 -82 88 3 68 111 104 134 44z m-1893 -1 c3 -9
-2 -13 -14 -10 -9 1 -19 9 -22 16 -3 9 2 13 14 10 9 -1 19 -9 22 -16z m3203
-15 c42 -28 60 -62 57 -107 -4 -47 -37 -65 -102 -56 -66 10 -96 41 -96 100 0
37 5 48 28 65 36 27 71 26 113 -2z m-477 -63 c19 -7 21 -34 3 -34 -14 0 -37
20 -37 32 0 10 13 10 34 2z m-1053 -125 c16 -17 30 -40 31 -50 0 -10 1 -25 2
-31 1 -7 4 -16 9 -19 4 -3 -2 -15 -13 -26 -17 -19 -27 -21 -82 -16 -86 8 -126
25 -134 59 -10 38 17 79 53 81 15 0 36 2 46 2 9 1 17 8 17 16 0 26 40 17 71
-16z m-747 -78 c3 -5 17 -8 31 -8 13 0 36 -8 51 -18 25 -16 26 -20 22 -87 -5
-84 -25 -108 -91 -108 -85 0 -109 67 -62 174 24 53 37 67 49 47z m-510 -97
c41 -41 37 -103 -12 -175 -20 -31 -42 -64 -47 -74 -8 -13 -18 -15 -45 -10 -76
15 -118 146 -68 211 59 76 125 94 172 48z m1286 -123 c20 -21 46 -42 58 -45
39 -13 45 -32 21 -60 -17 -20 -32 -26 -63 -26 -65 -1 -119 -17 -141 -43 -24
-29 -51 -44 -85 -47 -46 -4 -59 0 -85 25 -51 51 -21 145 52 160 49 11 81 26
87 41 7 19 42 33 85 33 27 1 42 -7 71 -38z m-843 -138 c23 -38 43 -53 69 -53
24 0 57 -44 67 -90 8 -35 -16 -101 -45 -122 -20 -15 -28 -15 -68 -4 -77 22
-80 24 -80 70 0 57 -18 80 -50 68 -33 -12 -67 1 -82 33 -6 14 -15 25 -19 25
-13 0 23 57 46 71 22 14 73 26 117 28 20 1 32 -7 45 -26z m-247 -79 c0 -9 -5
-14 -12 -12 -18 6 -21 28 -4 28 9 0 16 -7 16 -16z m305 -298 c46 -10 51 -15
63 -50 11 -35 10 -42 -10 -79 -17 -29 -32 -43 -55 -49 -24 -6 -34 -15 -39 -36
-14 -65 -20 -72 -71 -72 -27 0 -54 4 -61 8 -28 18 -36 122 -10 122 6 0 8 6 6
13 -6 14 9 56 40 115 25 47 42 51 137 28z m-675 -29 c19 -6 49 -10 65 -8 40 3
62 -16 70 -59 8 -45 -18 -82 -55 -81 -14 1 -67 3 -118 4 -85 2 -95 4 -113 26
-25 31 -25 86 1 109 38 32 71 34 150 9z m2540 -118 c-11 -39 -17 -46 -40 -52
-13 -3 -20 0 -20 8 0 7 -3 21 -7 31 -4 11 -3 15 4 11 7 -4 16 5 21 20 l10 28
1 -25 c1 -15 -4 -31 -11 -38 -6 -6 -8 -15 -4 -19 12 -12 37 29 30 49 -3 10 -2
23 2 29 12 20 22 -12 14 -42z m-3198 -36 c34 -30 12 -144 -31 -158 -29 -9 -69
4 -86 28 -24 34 -18 73 16 112 35 39 71 46 101 18z m3093 -1 c-3 -3 -11 0 -18
7 -9 10 -8 11 6 5 10 -3 15 -9 12 -12z m-1832 -221 c48 -21 97 -79 97 -117 0
-26 -30 -54 -77 -70 -44 -16 -61 -8 -95 43 -23 34 -25 44 -19 91 7 47 21 71
43 72 3 0 27 -9 51 -19z m-1253 -286 c27 -17 -11 -85 -49 -85 -20 0 -61 35
-61 54 0 23 32 43 65 40 19 -1 39 -5 45 -9z m228 -22 c2 -14 -7 -28 -26 -42
-28 -19 -30 -20 -44 -3 -20 22 -8 55 23 63 34 10 44 6 47 -18z m1076 1 c30
-11 40 -43 20 -65 -23 -25 -89 -26 -100 -1 -22 51 23 88 80 66z m-1111 -153
c29 -16 35 -47 17 -81 -17 -32 -73 -86 -114 -110 l-39 -23 -18 22 c-13 16 -19
40 -19 78 0 66 9 85 57 118 40 26 65 26 116 -4z"/>
<path d="M2200 8630 c0 -5 18 -10 39 -10 22 0 43 5 46 10 4 6 -12 10 -39 10
-25 0 -46 -4 -46 -10z"/>
<path d="M7552 10196 c-29 -40 -32 -49 -28 -103 3 -32 11 -73 19 -92 18 -42
11 -70 -20 -82 -22 -8 -24 -13 -18 -52 5 -33 3 -46 -9 -56 -12 -10 -16 -32
-16 -83 0 -65 2 -71 33 -99 54 -51 62 -52 90 -16 36 48 67 113 83 176 29 114
78 198 135 233 26 16 42 60 22 57 -38 -6 -49 3 -61 49 -7 26 -16 62 -19 80
l-5 32 -87 0 -88 0 -31 -44z"/>
<path d="M8228 10208 c-32 -71 -40 -97 -33 -118 7 -21 7 -21 38 -1 18 10 48
22 67 26 19 4 43 15 54 24 18 16 46 70 46 91 0 6 -31 10 -79 10 l-79 0 -14
-32z"/>
<path d="M8846 9893 c-3 -3 -6 -19 -6 -34 0 -21 4 -27 15 -23 8 4 15 17 15 29
0 25 -12 39 -24 28z"/>
<path d="M7187 9813 c-13 -12 -7 -33 8 -33 8 0 15 9 15 20 0 20 -11 26 -23 13z"/>
<path d="M8473 9803 c-7 -2 -13 -17 -13 -33 0 -45 -10 -59 -54 -82 -22 -11
-48 -27 -57 -35 -9 -8 -27 -15 -38 -16 -16 -1 -21 -6 -18 -19 4 -12 -1 -18
-13 -18 -10 0 -23 -7 -30 -15 -7 -8 -19 -15 -26 -15 -8 0 -14 -7 -14 -15 0 -8
-7 -15 -16 -15 -8 0 -13 -4 -10 -9 3 -5 -5 -16 -19 -25 -14 -9 -25 -14 -25
-10 0 15 -32 -21 -47 -53 -10 -23 -18 -30 -23 -22 -5 6 -15 9 -24 6 -22 -9
-23 3 -7 73 5 23 5 40 0 40 -5 0 -9 -6 -9 -14 0 -8 -7 -17 -16 -20 -12 -4 -15
-2 -11 9 4 8 2 17 -3 20 -6 4 -10 2 -10 -3 0 -5 -12 -8 -27 -6 -35 4 -83 -14
-83 -32 0 -8 -5 -14 -11 -14 -6 0 -23 -9 -39 -20 -15 -11 -30 -17 -34 -13 -6
6 -10 -11 -7 -34 1 -8 -5 -10 -16 -6 -15 5 -16 3 -5 -8 6 -7 12 -23 12 -36 0
-13 4 -23 8 -23 4 0 8 -16 9 -35 1 -42 -2 -43 -21 -7 l-15 27 -1 -42 c0 -25
-7 -48 -16 -58 -9 -9 -19 -36 -22 -61 -2 -24 -9 -44 -13 -44 -5 0 -9 -7 -9
-15 0 -17 -46 -39 -61 -29 -5 3 -9 0 -9 -5 0 -6 -17 -11 -38 -11 -25 0 -46 -7
-61 -22 -19 -17 -27 -19 -42 -10 -10 7 -26 12 -34 12 -8 0 -15 5 -15 10 0 6
-6 10 -14 10 -9 0 -12 -7 -9 -20 3 -11 12 -20 19 -20 24 0 15 -20 -8 -21 -13
-1 -26 -1 -30 0 -15 2 -113 -22 -124 -30 -6 -5 -37 -12 -69 -15 -48 -6 -64
-13 -82 -35 -13 -15 -32 -31 -43 -34 -10 -3 -20 -16 -22 -28 -2 -12 -9 -21
-15 -20 -7 2 -19 -19 -26 -45 -10 -32 -20 -48 -33 -50 -10 -2 -23 -9 -29 -14
-7 -8 -6 -9 3 -4 7 4 12 1 12 -8 0 -9 5 -16 10 -16 15 0 12 -30 -2 -32 -18 -2
-49 -5 -75 -7 -14 0 -23 -7 -23 -17 0 -11 -6 -15 -19 -11 -15 3 -21 -4 -30
-35 -7 -21 -16 -36 -21 -33 -6 3 -7 -1 -4 -9 3 -9 -3 -20 -14 -27 -11 -7 -18
-18 -15 -25 2 -7 -3 -14 -13 -16 -16 -3 -17 -4 -1 -20 22 -22 21 -24 -5 -32
-19 -5 -20 -8 -8 -16 12 -7 9 -11 -16 -20 -24 -9 -32 -19 -42 -55 -7 -25 -12
-56 -12 -70 0 -14 -4 -25 -10 -25 -5 0 -10 -7 -10 -16 0 -8 4 -13 9 -10 5 3 9
-6 9 -20 0 -18 -8 -28 -24 -34 -13 -5 -24 -12 -24 -15 0 -4 5 -3 10 0 16 10
11 -5 -12 -38 -23 -32 -25 -61 -6 -84 18 -23 16 -77 -4 -91 -21 -15 -52 -71
-44 -79 3 -3 12 0 21 7 23 19 18 2 -16 -58 -20 -36 -26 -53 -16 -49 13 5 13 2
1 -21 -17 -33 -18 -49 -2 -54 8 -3 5 -17 -10 -46 -12 -24 -22 -51 -22 -62 0
-11 -4 -20 -9 -20 -5 0 -12 -19 -16 -42 -9 -60 -33 -137 -56 -180 -24 -45 -30
-68 -36 -130 -3 -30 -9 -45 -16 -42 -7 2 -23 -15 -35 -37 -13 -23 -19 -38 -12
-34 9 5 10 1 5 -14 -3 -11 -8 -33 -11 -47 -10 -52 -34 -95 -94 -165 -34 -39
-66 -83 -73 -98 -6 -14 -17 -34 -25 -43 -12 -15 -12 -18 -2 -18 8 0 2 -12 -14
-29 -27 -28 -48 -110 -25 -95 5 3 9 9 9 15 0 5 8 17 18 27 100 105 151 165
157 181 3 12 18 33 33 49 44 46 112 132 197 249 84 116 110 142 127 125 6 -6
18 -8 27 -5 12 3 11 0 -4 -12 -20 -17 -20 -17 5 -10 14 4 22 4 18 0 -3 -3 28
-25 70 -47 43 -22 89 -47 104 -55 15 -8 30 -18 33 -23 3 -5 18 -8 33 -6 15 2
21 1 15 -1 -21 -7 -15 -22 12 -29 14 -3 25 -9 25 -13 0 -4 14 -15 31 -25 21
-12 29 -24 26 -36 -4 -14 3 -19 34 -24 22 -3 39 -11 39 -17 0 -8 5 -8 15 1 17
14 50 5 39 -11 -6 -10 -22 -9 -89 6 -11 2 -33 6 -50 9 -16 3 -57 12 -90 21
-120 30 -205 27 -227 -8 -12 -19 -9 -30 5 -19 26 22 96 33 137 22 36 -10 40
-14 39 -43 0 -18 -2 -27 -5 -22 -4 11 -166 11 -184 0 -6 -3 -10 3 -10 14 0 15
-6 21 -21 21 -12 0 -19 -5 -16 -12 2 -7 -1 -27 -8 -45 -8 -17 -10 -34 -7 -38
4 -3 0 -4 -8 -1 -10 4 -19 -3 -27 -19 -9 -20 -8 -25 3 -25 8 0 14 -4 14 -10 0
-5 11 -10 25 -10 14 0 28 -7 31 -15 3 -8 15 -17 25 -20 20 -7 22 -34 4 -47 -5
-4 5 -12 23 -19 25 -8 31 -16 27 -29 -3 -11 0 -20 10 -24 8 -3 15 -13 15 -21
0 -9 5 -13 11 -9 8 4 9 -1 4 -16 -6 -18 -4 -21 12 -16 10 3 25 1 33 -4 12 -7
12 -11 -3 -28 -17 -19 -17 -20 8 -26 17 -4 25 -13 25 -29 0 -23 65 -104 81
-100 5 2 9 -1 9 -6 0 -4 -14 -12 -32 -17 -30 -9 -30 -10 -14 -27 10 -9 22 -15
27 -12 5 4 9 -4 9 -16 0 -16 5 -20 19 -16 14 3 18 1 14 -9 -3 -8 -12 -14 -20
-14 -8 0 -12 -4 -8 -10 3 -5 12 -7 20 -3 9 3 26 -2 38 -10 27 -17 57 -6 57 21
1 15 2 15 13 1 20 -27 92 -32 140 -11 23 10 51 27 61 37 13 14 20 15 25 6 6
-8 24 4 60 39 59 58 91 106 91 137 0 12 5 25 10 28 7 4 6 13 -1 27 -7 12 -9
40 -5 68 3 25 3 49 0 53 -8 8 -12 84 -6 114 6 32 22 18 22 -20 1 -27 2 -29 11
-14 12 21 29 22 29 3 0 -16 27 -46 41 -46 5 0 14 10 19 23 9 22 9 22 10 -3 1
-23 2 -23 10 -5 7 18 8 18 15 -7 9 -34 25 -37 26 -5 0 12 3 16 6 10 7 -20 23
-15 23 6 0 22 30 35 59 26 12 -3 21 0 25 10 3 9 2 13 -4 10 -6 -3 -10 3 -10
14 0 14 5 19 15 15 8 -4 15 -1 15 5 0 6 -5 11 -11 11 -6 0 -8 7 -5 15 3 9 -1
18 -9 21 -8 4 -15 11 -15 16 0 6 7 7 16 4 13 -5 14 -1 9 24 -6 26 -4 29 11 23
12 -4 15 -3 10 5 -4 7 -13 12 -21 12 -8 0 -21 10 -30 22 -13 19 -18 21 -35 11
-29 -19 -38 6 -10 29 14 11 17 18 8 18 -8 0 -20 -6 -27 -12 -11 -10 -12 -10
-7 -1 4 8 -6 18 -29 27 -19 8 -35 21 -35 28 0 9 -3 9 -10 -2 -5 -8 -10 -10
-10 -4 0 5 5 15 10 20 7 7 -2 15 -31 24 -22 8 -48 24 -56 36 -7 12 -27 27 -43
34 -17 7 -28 16 -25 20 5 8 -54 40 -74 40 -21 0 -92 41 -123 71 -17 16 -42 29
-54 29 -13 0 -24 5 -24 10 0 6 -12 10 -26 10 -19 0 -25 4 -20 15 5 13 -2 16
-37 15 -23 0 -59 2 -79 6 -25 4 -38 2 -38 -5 0 -6 -5 -11 -11 -11 -5 0 -7 5
-4 10 3 6 -3 10 -14 10 -10 0 -22 -6 -24 -12 -4 -10 -7 -10 -15 0 -12 18 -92
24 -117 9 -11 -7 -30 -12 -42 -11 -13 1 -23 -3 -23 -7 0 -5 -7 -9 -17 -9 -14
0 -15 2 -1 18 8 9 18 25 21 35 4 11 17 17 34 17 l28 0 -24 -13 c-34 -17 -38
-36 -7 -30 14 3 23 9 20 14 -3 5 2 9 10 9 9 0 16 5 16 11 0 5 5 7 12 3 7 -4 8
-3 4 4 -4 7 -20 12 -35 12 -41 0 -43 8 -13 54 15 22 36 58 46 79 11 20 23 37
28 37 4 0 8 9 8 20 0 12 7 20 17 20 9 0 14 3 10 6 -3 3 -1 11 4 18 5 6 23 30
39 54 18 24 38 42 49 42 11 0 22 8 25 18 5 16 87 72 105 72 4 0 18 9 31 20 13
11 29 20 37 20 7 0 13 6 13 13 0 15 100 103 112 99 5 -1 8 2 8 6 0 9 72 56
123 82 15 7 27 17 27 21 0 7 53 22 82 24 4 0 13 6 19 13 19 18 60 15 75 -5 9
-13 13 -14 14 -4 0 8 6 11 15 7 10 -4 20 5 30 27 9 20 13 23 9 8 -5 -19 -3
-23 10 -18 9 4 19 -1 25 -10 8 -15 11 -15 26 -3 15 12 19 12 31 -5 10 -13 11
-21 3 -26 -6 -3 -7 -9 -2 -12 5 -3 15 -2 23 4 18 11 30 12 29 2 -5 -29 2 -35
34 -29 l32 6 -38 -24 c-53 -33 -54 -35 -7 -25 44 10 80 5 80 -12 0 -6 -8 -5
-21 1 -11 7 -24 9 -27 5 -3 -3 4 -8 16 -12 12 -3 22 -9 22 -13 0 -4 8 -7 17
-6 10 0 19 -7 21 -16 4 -19 -22 -25 -33 -8 -3 6 -14 10 -23 10 -11 0 2 -18 37
-50 30 -28 58 -50 61 -50 6 0 7 -25 1 -51 0 -4 -10 -9 -22 -12 -13 -3 -18 -10
-14 -17 4 -7 15 -10 25 -7 10 2 24 1 31 -4 15 -10 13 -10 -50 -13 -37 -1 -57
-26 -22 -26 25 0 45 -32 29 -48 -8 -8 -8 -15 2 -26 7 -9 9 -23 6 -33 -4 -9 -1
-20 6 -25 10 -8 10 -11 1 -15 -15 -5 -18 -33 -4 -33 5 0 11 7 15 15 3 8 9 15
14 15 14 0 8 -44 -8 -57 -13 -10 -13 -14 3 -30 25 -29 22 -79 -8 -109 -26 -26
-25 -44 1 -44 16 0 19 -21 3 -37 -7 -7 -6 -15 5 -26 9 -9 16 -19 16 -23 0 -5
-5 -3 -12 4 -16 16 -41 15 -35 0 2 -7 10 -12 16 -10 6 1 11 -2 11 -8 0 -5 6
-10 14 -10 13 0 43 -56 34 -65 -2 -2 -16 7 -31 21 -30 28 -32 26 -15 -11 8
-18 19 -25 39 -25 15 0 29 6 32 13 3 9 9 7 24 -6 11 -9 22 -14 26 -11 3 4 13
-1 22 -9 16 -16 21 -32 7 -23 -4 2 -8 -4 -8 -15 0 -15 6 -19 26 -18 64 5 79
-14 51 -64 -14 -25 -14 -29 -1 -37 8 -5 22 -9 30 -9 11 1 10 3 -2 6 -10 2 -18
13 -18 24 0 22 4 23 22 7 8 -7 23 -18 33 -24 11 -6 21 -21 23 -33 3 -19 -2
-21 -40 -22 l-43 -1 39 -9 c28 -7 42 -6 47 2 4 6 12 10 19 7 9 -3 8 -8 -4 -20
-17 -17 -22 -38 -8 -38 17 1 42 29 37 42 -4 10 1 17 15 21 18 5 20 2 14 -16
-4 -12 -11 -23 -15 -25 -12 -5 -11 -42 0 -42 5 0 12 6 14 13 4 7 6 6 6 -5 1
-9 7 -19 14 -21 9 -4 9 -7 -1 -15 -9 -6 -5 -12 15 -22 16 -7 23 -15 16 -17 -7
-3 -13 -11 -13 -18 0 -20 -28 -26 -34 -7 -3 9 -4 5 -2 -10 2 -16 -2 -28 -8
-28 -6 0 -23 -7 -38 -14 -16 -9 -30 -11 -33 -5 -9 14 -55 11 -61 -5 -4 -11
-13 -12 -41 -4 -19 5 -37 7 -41 4 -3 -3 0 -6 7 -6 7 0 9 -4 6 -10 -11 -18 -25
-11 -25 13 0 16 -3 18 -9 8 -5 -7 -14 -10 -20 -6 -7 4 -18 1 -26 -5 -12 -10
-15 -10 -15 1 -1 10 -4 8 -11 -3 -6 -12 -22 -18 -46 -18 -33 0 -35 1 -29 28
l6 27 -14 -25 c-8 -14 -20 -25 -28 -25 -7 0 -28 -4 -46 -9 l-33 -8 27 -20 c20
-16 23 -23 12 -29 -7 -4 -17 -4 -22 1 -15 15 -36 12 -36 -6 0 -11 -6 -14 -20
-9 -22 7 -28 -9 -8 -21 8 -5 -3 -20 -33 -46 -41 -36 -42 -38 -19 -38 21 -1 19
-4 -17 -20 -25 -12 -40 -25 -37 -33 2 -7 -9 -17 -27 -24 -23 -9 -30 -17 -25
-28 3 -9 2 -14 -3 -11 -5 3 -17 -7 -27 -22 -25 -39 -36 -48 -64 -55 -14 -3
-29 -16 -35 -28 -5 -13 -25 -30 -42 -38 -18 -9 -33 -24 -33 -33 0 -10 -4 -18
-10 -18 -5 0 -10 -8 -10 -18 0 -11 -9 -27 -20 -37 -11 -10 -20 -24 -20 -32 0
-7 -7 -16 -15 -19 -8 -4 -15 -14 -15 -23 0 -10 -8 -26 -19 -37 -10 -11 -22
-31 -26 -45 -4 -13 -25 -41 -46 -62 -22 -21 -39 -40 -39 -42 0 -2 -11 -16 -25
-31 -13 -14 -22 -30 -20 -35 3 -4 -4 -13 -16 -19 -19 -11 -21 -18 -16 -71 3
-36 1 -59 -5 -59 -6 0 -6 -6 1 -14 8 -10 9 -16 1 -21 -5 -3 -10 -20 -10 -36 0
-19 -9 -38 -26 -54 -16 -15 -24 -31 -20 -40 3 -9 0 -15 -9 -15 -8 0 -30 -16
-50 -37 -19 -20 -35 -31 -35 -25 0 7 -4 12 -10 12 -5 0 -10 -7 -10 -15 0 -18
-17 -20 -23 -2 -11 31 -77 -80 -69 -115 3 -11 -22 -10 -34 1 -5 6 -10 -2 -11
-22 -1 -18 -11 -39 -23 -49 -16 -13 -19 -23 -14 -44 6 -24 4 -26 -13 -22 -27
7 -46 -10 -68 -59 -11 -25 -27 -44 -40 -47 -12 -3 -27 -20 -35 -41 -7 -19 -20
-35 -27 -35 -7 0 -13 -5 -13 -11 0 -7 -10 -9 -27 -5 -16 3 -75 15 -133 26
-118 22 -210 59 -250 100 -35 36 -91 47 -125 24 -17 -11 -25 -24 -22 -35 3
-10 0 -20 -7 -23 -8 -3 -8 -7 0 -13 6 -4 13 -16 17 -25 7 -19 47 -24 63 -8 29
29 163 -90 228 -202 15 -27 31 -48 36 -48 5 0 17 -16 26 -36 14 -29 15 -40 6
-55 -7 -10 -12 -26 -12 -35 0 -11 -6 -15 -20 -11 -11 3 -20 1 -20 -4 0 -5 -11
-7 -25 -3 -28 7 -30 2 -13 -26 10 -16 10 -24 0 -40 -18 -30 -15 -40 15 -40 30
0 21 -18 -13 -24 -10 -3 -30 -9 -44 -14 -24 -9 -24 -9 -4 -16 25 -8 30 -52 7
-60 -21 -9 -5 -26 24 -26 23 0 25 -3 19 -34 -6 -29 -3 -34 16 -40 19 -5 20 -8
8 -15 -9 -7 -19 -6 -28 1 -9 8 -18 6 -32 -10 -11 -12 -20 -27 -20 -34 0 -9 3
-9 10 2 5 8 10 11 10 5 0 -32 -49 -55 -57 -26 -6 23 -33 37 -33 17 0 -8 -8
-13 -17 -12 -13 1 -19 -8 -21 -32 -2 -20 -9 -32 -18 -32 -8 0 -14 5 -14 10 0
15 -36 12 -50 -5 -7 -8 -10 -25 -6 -40 5 -18 2 -25 -7 -25 -8 0 -19 -10 -26
-22 -6 -13 -9 -15 -6 -5 3 11 1 16 -6 12 -5 -4 -16 -1 -24 5 -8 7 -15 9 -15 4
0 -11 87 -104 96 -104 4 0 26 -16 50 -35 23 -19 46 -35 51 -35 5 0 15 -9 23
-20 8 -11 20 -20 27 -20 6 0 14 -9 18 -19 3 -11 12 -22 20 -25 9 -3 13 -16 10
-36 -3 -24 0 -30 10 -26 8 3 17 1 20 -5 4 -5 -2 -12 -11 -16 -27 -10 -54 -36
-48 -45 3 -5 12 -4 19 2 11 9 14 7 12 -9 0 -11 -5 -17 -10 -14 -17 10 -117 -8
-117 -22 0 -7 -10 -15 -22 -17 -15 -2 -22 -9 -22 -21 1 -9 -4 -17 -10 -17 -23
0 -66 -25 -66 -39 0 -9 -8 -11 -25 -7 -23 6 -24 5 -13 -13 9 -15 17 -17 35
-10 24 9 34 -5 11 -14 -10 -4 -10 -8 1 -15 23 -16 -6 -45 -36 -37 -23 5 -32
-8 -13 -20 6 -4 8 -10 6 -14 -3 -4 2 -8 11 -8 9 0 18 8 20 18 3 9 13 19 24 22
11 3 19 14 19 25 0 11 9 22 21 25 17 5 18 3 8 -10 -19 -22 -19 -52 0 -46 10 3
7 -3 -7 -16 -22 -19 -22 -20 -3 -30 11 -6 33 -11 50 -11 17 0 31 -5 31 -11 0
-8 -14 -10 -40 -6 -22 3 -43 1 -46 -4 -3 -5 6 -9 20 -9 25 0 38 -20 14 -20 -8
-1 -5 -6 6 -15 10 -7 15 -18 11 -24 -4 -7 4 -11 19 -11 14 0 26 -4 26 -10 0
-5 6 -7 14 -4 8 3 17 1 20 -4 3 -5 -3 -12 -14 -15 -11 -3 -20 -10 -20 -17 0
-6 5 -8 11 -4 7 4 10 1 7 -7 -3 -8 -15 -20 -29 -26 -18 -10 -20 -13 -6 -13 9
0 17 -4 17 -10 0 -5 -4 -10 -10 -10 -5 0 -10 -7 -10 -16 0 -12 7 -15 31 -12
21 3 33 0 39 -12 6 -11 19 -16 37 -14 16 1 32 -4 40 -14 12 -16 14 -16 28 2 9
12 15 15 15 7 0 -8 6 -11 15 -7 9 3 15 0 15 -9 0 -9 10 -15 25 -15 23 0 24 -2
19 -53 -3 -33 -1 -45 4 -32 7 16 10 17 18 4 5 -8 20 -20 34 -26 24 -11 24 -12
-13 -12 -38 -1 -38 -2 -32 -31 9 -39 -13 -90 -39 -90 -15 0 -16 -3 -6 -15 11
-13 8 -17 -19 -26 -29 -10 -43 -29 -21 -29 6 0 10 5 10 10 0 6 5 10 10 10 6 0
10 -9 10 -19 0 -39 25 -30 55 19 8 13 6 13 -8 1 -23 -18 -34 -6 -13 14 9 9 16
22 17 28 0 7 4 2 9 -10 12 -30 48 -30 59 -1 9 23 9 23 20 -5 6 -16 11 -34 11
-40 0 -12 -28 -34 -60 -49 -11 -5 -9 -7 7 -7 28 -1 38 -18 23 -36 -14 -17 -5
-35 18 -35 13 0 14 -2 3 -9 -10 -7 -11 -13 -2 -30 13 -24 22 -26 38 -10 8 8
13 8 17 0 4 -6 1 -11 -6 -11 -7 0 -18 -11 -24 -24 -10 -22 -9 -24 17 -28 16
-3 29 -1 29 4 0 4 -5 8 -10 8 -7 0 -7 7 0 20 6 11 16 18 22 14 7 -4 6 -9 -3
-15 -11 -6 -10 -12 4 -27 17 -19 16 -19 -34 -19 -31 0 -54 -5 -59 -13 -7 -11
-13 -10 -33 3 -25 16 -43 17 -64 4 -15 -9 -17 11 -4 32 6 9 16 11 27 7 10 -4
15 -4 11 0 -4 4 3 18 15 31 18 19 20 27 10 48 -6 14 -16 25 -22 25 -14 0 -12
-9 5 -27 17 -16 12 -33 -11 -33 -8 0 -14 -7 -14 -15 0 -14 -4 -14 -37 0 -35
15 -60 12 -34 -4 18 -11 9 -47 -11 -43 -10 1 -20 -9 -26 -28 -6 -16 -16 -30
-22 -30 -6 0 -8 -4 -5 -10 3 -6 -5 -10 -19 -10 -13 0 -27 6 -29 13 -4 7 -8 3
-13 -11 -5 -17 -13 -22 -30 -20 -13 2 -30 -6 -41 -18 -18 -20 -68 -41 -57 -23
3 5 1 9 -5 9 -5 0 -13 -4 -16 -10 -3 -5 -20 -7 -38 -4 -25 3 -28 2 -12 -5 17
-8 15 -10 -15 -10 -27 -1 -31 -4 -20 -11 11 -8 6 -10 -20 -9 -19 1 -75 -2
-125 -7 -111 -11 -311 -7 -385 7 -132 24 -150 31 -150 56 0 14 6 23 15 23 8 0
15 5 15 10 0 6 -7 10 -15 10 -8 0 -15 6 -15 13 0 7 -13 29 -30 47 -32 36 -33
39 -30 84 3 44 -19 49 -52 13 -15 -18 -26 -38 -23 -44 5 -14 -23 -32 -58 -39
-63 -13 -86 -12 -91 2 -3 8 -11 14 -18 14 -7 0 -26 13 -43 28 -18 17 -56 35
-95 46 -36 10 -77 24 -91 32 -38 19 -132 131 -123 146 3 4 0 8 -5 8 -6 0 -11
7 -11 16 0 8 -4 13 -9 9 -5 -3 -15 12 -21 32 -7 21 -19 49 -28 63 -9 14 -17
36 -18 48 -2 13 -11 30 -20 36 -11 8 -14 18 -9 26 5 9 4 11 -3 6 -8 -5 -12 3
-12 26 0 25 -3 30 -10 18 -8 -11 -9 -4 -6 24 3 37 -14 90 -28 81 -3 -3 -2 1 4
7 5 7 10 27 10 45 0 41 22 54 120 70 63 10 77 10 91 -3 19 -17 39 -18 39 -1 0
8 3 7 10 -3 13 -21 80 50 80 85 0 14 7 28 15 31 8 4 15 15 15 26 0 18 35 70
83 123 10 11 40 65 67 120 56 115 79 135 196 159 181 38 163 63 -50 66 -51 0
-99 6 -115 14 -34 17 -287 35 -420 30 -57 -3 -146 0 -199 6 -96 11 -334 51
-407 70 -76 19 -101 20 -336 20 -315 0 -421 -14 -517 -67 -99 -55 -151 -96
-277 -220 -198 -196 -349 -371 -547 -635 -172 -229 -237 -313 -303 -393 -42
-49 -94 -117 -117 -150 -23 -33 -57 -79 -76 -102 -33 -41 -35 -42 -80 -37 -55
6 -97 12 -135 20 -38 8 -36 -22 3 -44 16 -9 30 -20 30 -24 0 -5 6 -8 13 -8 20
0 45 -31 48 -61 4 -29 -37 -101 -119 -211 -28 -37 -63 -89 -78 -115 -25 -43
-126 -184 -245 -342 -27 -36 -44 -50 -51 -43 -5 5 -8 18 -6 28 2 14 -5 22 -26
29 -48 16 -68 53 -69 129 -2 50 2 71 13 79 20 17 43 58 35 65 -3 3 -17 8 -32
10 -14 1 -32 10 -40 18 -8 7 -31 15 -51 16 -130 7 -203 23 -196 43 3 7 -6 21
-19 30 -15 10 -28 30 -31 50 -4 19 -11 35 -17 35 -5 0 -7 11 -3 25 5 21 3 25
-15 25 -12 0 -22 -1 -24 -2 -2 -2 -15 5 -31 15 -22 15 -38 17 -77 12 -38 -5
-52 -3 -65 9 -8 9 -26 16 -39 16 -16 0 -30 10 -42 30 -9 17 -20 30 -24 30 -3
0 -14 18 -24 40 -17 38 -20 40 -62 40 -23 0 -43 4 -43 9 0 5 -24 18 -52 29
-33 12 -58 28 -65 43 -7 13 -26 36 -44 51 -26 23 -35 26 -52 16 -16 -8 -22 -8
-25 1 -2 6 -9 11 -17 11 -7 0 -18 7 -25 15 -8 10 -31 15 -66 15 l-54 0 0
-1295 0 -1295 636 0 635 1 -6 22 c-6 22 -6 22 14 -2 l21 -23 0 30 c0 16 9 40
19 53 20 24 20 24 35 4 15 -19 16 -18 5 10 -8 23 -7 32 4 40 7 5 19 19 26 30
8 12 11 14 8 4 -3 -9 0 -22 6 -28 11 -11 9 -12 -15 -15 -8 -1 -12 -12 -10 -27
2 -14 -6 -35 -18 -48 -11 -13 -20 -28 -20 -33 0 -5 -4 -6 -10 -3 -5 3 -10 1
-10 -4 0 -8 333 -11 1103 -11 l1102 0 100 180 c55 99 108 193 117 210 10 16
26 30 35 30 18 0 73 -44 73 -59 0 -7 -135 -259 -171 -317 -10 -17 -19 -34 -19
-38 0 -3 111 -6 246 -6 l247 0 38 35 c22 19 46 35 55 35 9 0 39 -16 65 -35
l49 -35 2846 0 2846 0 -49 57 c-27 32 -52 65 -55 74 -9 24 -92 150 -121 183
-14 17 -47 64 -73 105 -143 228 -269 358 -414 428 -81 40 -106 58 -171 128
-42 44 -95 93 -117 108 -22 16 -61 57 -86 91 -53 73 -139 159 -211 212 -71 52
-120 100 -172 167 -42 55 -239 255 -357 363 -41 38 -64 72 -89 126 -19 40 -50
91 -71 113 -37 41 -74 98 -140 217 -64 117 -173 218 -236 218 -25 0 -92 33
-109 54 -8 9 -21 16 -30 16 -11 0 -23 17 -34 47 -31 84 -97 173 -97 130 0 -19
-37 -40 -43 -24 -4 9 -6 9 -6 0 -1 -20 -25 -14 -43 11 -40 54 17 258 112 400
15 23 42 68 60 101 18 33 54 91 79 128 25 37 51 75 56 85 6 10 31 44 56 77 26
33 46 62 47 65 0 3 8 21 17 42 11 23 15 43 10 55 -5 10 -7 21 -7 25 3 12 -43
9 -54 -2 -6 -6 -18 -8 -27 -4 -34 13 -28 17 126 89 43 20 86 44 95 53 10 9 34
26 55 37 31 16 34 21 20 27 -15 5 -14 7 5 7 13 1 22 7 22 17 0 13 3 14 13 5
16 -13 27 -5 27 20 0 16 25 34 43 31 4 -1 7 2 7 7 0 12 47 61 59 61 6 0 8 12
5 28 -5 23 -1 30 20 40 27 12 35 32 14 32 -7 1 -2 10 12 21 14 11 53 47 87 80
33 33 63 55 65 49 4 -14 77 40 78 58 0 18 28 14 34 -5 3 -14 4 -13 3 3 -1 11
10 35 26 53 15 18 27 37 27 42 0 5 7 9 15 9 9 0 23 6 31 13 34 27 124 117 124
122 0 14 45 43 51 33 8 -12 59 34 59 53 1 15 34 59 45 59 4 0 5 -7 1 -15 -3
-8 -2 -15 3 -15 9 0 37 60 34 71 -1 4 7 5 18 2 19 -5 19 -7 5 -15 -9 -5 -16
-13 -16 -19 0 -5 9 -4 20 3 11 7 20 18 20 25 0 7 6 13 13 13 8 0 13 -12 13
-31 0 -22 -10 -41 -38 -69 -21 -21 -45 -41 -54 -44 -9 -4 -14 -13 -10 -21 3
-8 2 -15 -2 -15 -4 0 -42 -34 -85 -75 -42 -41 -81 -75 -87 -75 -5 0 -10 -8
-11 -17 0 -15 -2 -15 -9 2 -5 12 -9 15 -9 5 -1 -11 -4 -11 -13 -2 -9 9 -8 15
7 25 14 11 15 16 5 22 -8 5 -19 -1 -31 -16 -11 -16 -14 -26 -7 -30 7 -4 4 -11
-8 -18 -50 -28 -51 -29 -19 -55 l30 -24 -25 -12 c-14 -6 -34 -28 -46 -49 l-21
-38 26 -24 c14 -13 60 -43 101 -67 69 -40 80 -43 130 -40 47 3 68 12 131 55
42 28 87 54 100 58 24 8 32 13 121 73 25 18 49 32 53 32 3 0 11 5 18 10 14 12
73 56 113 85 15 11 32 25 38 31 6 5 61 48 121 93 201 152 291 256 320 369 27
102 13 251 -26 275 -10 6 -19 17 -19 24 0 6 -12 21 -26 32 -14 11 -23 25 -19
31 3 6 10 8 14 5 5 -2 21 13 36 35 15 22 31 37 35 35 12 -7 50 44 50 66 0 11
3 18 8 18 4 -1 10 0 15 1 4 1 13 3 19 4 7 0 20 16 28 34 9 18 19 30 23 26 4
-4 7 -2 7 5 0 7 4 10 10 6 5 -3 16 5 25 18 8 13 26 29 40 35 16 8 25 20 25 35
0 12 9 29 20 37 11 8 20 21 20 28 0 8 13 26 28 40 16 15 32 36 36 47 5 15 9
16 15 6 6 -9 10 -7 14 8 3 12 9 21 14 19 4 -1 18 1 31 6 l22 7 0 1410 0 1409
-21 0 c-25 0 -59 17 -59 30 0 13 47 13 55 0 13 -21 25 -9 25 24 0 32 -20 63
-33 50 -4 -4 -34 7 -68 25 -33 17 -76 31 -94 31 -18 0 -51 6 -73 14 -22 8 -50
12 -61 9 -13 -3 -29 4 -46 21 -14 14 -30 26 -35 26 -6 0 -10 7 -10 15 0 12 -4
13 -19 4 -11 -7 -26 -9 -37 -4 -16 7 -14 10 19 23 37 15 50 32 23 32 -7 0 -19
6 -25 14 -9 11 -7 15 11 19 12 4 19 10 15 14 -4 4 3 13 15 20 22 11 20 12 -19
13 -23 0 -45 5 -48 10 -3 6 -16 10 -28 10 -20 1 -21 1 -4 11 10 6 25 8 33 5 9
-4 14 -1 12 5 -2 6 -37 22 -78 36 -41 14 -77 29 -80 33 -3 4 -27 10 -55 14
-58 8 -105 25 -105 37 0 5 -8 9 -17 9 -15 0 -16 -2 -3 -10 13 -8 12 -10 -2
-10 -10 0 -18 5 -18 10 0 6 -15 10 -34 10 -19 0 -47 5 -63 11 -15 7 -39 12
-53 13 -14 0 -24 6 -23 13 2 7 -16 15 -42 19 -43 6 -60 26 -32 37 6 3 1 6 -13
6 -26 1 -66 21 -42 21 6 0 12 4 12 8 0 4 -27 4 -61 -2 -45 -7 -65 -7 -79 2
-11 7 -24 12 -29 12 -6 0 -22 11 -37 25 -22 21 -24 26 -10 31 9 3 13 10 10 15
-3 6 5 7 20 3 16 -4 26 -2 26 5 0 6 -6 11 -14 11 -34 0 -21 15 13 16 38 1 87
21 77 31 -3 3 -44 7 -91 8 -47 2 -92 8 -99 14 -10 9 -16 9 -21 1 -5 -8 -11 -8
-21 1 -8 6 -25 9 -41 5 -16 -4 -48 -9 -73 -13 -25 -3 -50 -9 -57 -15 -7 -5
-13 -5 -17 1 -4 5 2 12 13 16 10 3 21 15 24 26 5 19 2 20 -36 13 -23 -3 -69
-20 -101 -35 -69 -34 -66 -33 -66 -16 0 7 14 23 30 35 17 13 30 29 30 37 0 19
35 28 78 20 32 -6 34 -9 17 -15 -17 -8 -17 -9 8 -9 17 -1 27 4 27 13 0 9 16
17 43 21 39 7 40 8 17 17 -14 5 -35 7 -48 5 -12 -2 -25 0 -28 4 -3 5 4 9 15 9
11 0 23 5 27 11 5 9 -17 10 -82 4 l-89 -7 22 21 c38 36 4 94 -44 74z m7 -98
c0 -2 -9 -9 -20 -15 -16 -9 -18 -8 -14 5 5 13 34 22 34 10z m37 -192 c-9 -9
-19 -14 -23 -11 -10 10 6 28 24 28 15 0 15 -1 -1 -17z m-41 -5 c4 -6 3 -8 -3
-5 -5 4 -16 -5 -23 -18 -14 -27 -34 -32 -46 -13 -4 6 -3 8 3 5 5 -3 17 5 27
19 21 27 31 30 42 12z m-649 -110 c-3 -8 -6 -5 -6 6 -1 11 2 17 5 13 3 -3 4
-12 1 -19z m216 -28 c-3 -11 -7 -20 -9 -20 -2 0 -4 9 -4 20 0 11 4 20 9 20 5
0 7 -9 4 -20z m1051 -9 c31 -34 13 -41 -24 -10 -29 25 -31 29 -14 29 12 0 29
-9 38 -19z m-1744 -401 c0 -5 -9 -10 -21 -10 -11 0 -17 5 -14 10 3 6 13 10 21
10 8 0 14 -4 14 -10z m2660 -390 c0 -5 -2 -10 -4 -10 -3 0 -8 5 -11 10 -3 6
-1 10 4 10 6 0 11 -4 11 -10z m100 -26 c0 -2 -9 -4 -20 -4 -11 0 -20 4 -20 9
0 5 9 7 20 4 11 -3 20 -7 20 -9z m-2130 -633 c0 -6 -4 -13 -10 -16 -5 -3 -10
1 -10 9 0 9 5 16 10 16 6 0 10 -4 10 -9z m-967 -588 c-7 -2 -21 -2 -30 0 -10
3 -4 5 12 5 17 0 24 -2 18 -5z m-343 -53 c0 -5 -7 -10 -16 -10 -8 0 -12 5 -9
10 3 6 10 10 16 10 5 0 9 -4 9 -10z m265 -170 c3 -5 -1 -10 -9 -10 -9 0 -16 5
-16 10 0 6 4 10 9 10 6 0 13 -4 16 -10z m1365 -90 c0 -5 -7 -10 -15 -10 -8 0
-15 5 -15 10 0 6 7 10 15 10 8 0 15 -4 15 -10z m50 -42 c0 -6 -6 -5 -15 2 -8
7 -15 14 -15 16 0 2 7 1 15 -2 8 -4 15 -11 15 -16z m-1505 -208 c-3 -5 0 -7 8
-5 17 7 53 -30 37 -40 -5 -3 -8 -11 -4 -16 3 -5 0 -17 -7 -25 -10 -13 -16 -11
-41 12 -29 29 -37 53 -15 55 8 0 8 2 -2 6 -11 5 -11 7 0 14 19 12 32 11 24 -1z
m878 -20 c3 -11 1 -20 -4 -20 -5 0 -9 9 -9 20 0 11 2 20 4 20 2 0 6 -9 9 -20z
m-738 -50 c3 -5 2 -10 -4 -10 -5 0 -13 5 -16 10 -3 6 -2 10 4 10 5 0 13 -4 16
-10z m1385 -35 c0 -8 -4 -15 -10 -15 -5 0 -10 7 -10 15 0 8 5 15 10 15 6 0 10
-7 10 -15z m-393 -17 c-8 -5 -6 -8 8 -9 19 0 19 -1 1 -8 -18 -7 -66 7 -66 20
0 3 16 5 35 5 21 0 30 -3 22 -8z m-907 -392 c0 -9 -30 -14 -35 -6 -4 6 3 10
14 10 12 0 21 -2 21 -4z m1287 -328 c11 -9 11 -14 -3 -29 -9 -10 -13 -22 -10
-27 3 -6 3 -17 0 -26 -8 -20 -51 -1 -60 27 -14 44 39 84 73 55z m133 -68 c0
-5 -6 -10 -14 -10 -8 0 -18 5 -21 10 -3 6 3 10 14 10 12 0 21 -4 21 -10z
m-1509 -687 c1 -10 3 -28 4 -41 1 -12 -2 -25 -7 -28 -5 -3 -6 -14 -3 -25 4
-10 3 -19 -2 -19 -5 0 -9 -10 -10 -22 -1 -11 -7 -24 -13 -28 -6 -4 -10 -13 -9
-21 4 -17 -10 -72 -19 -79 -4 -3 -20 -22 -35 -42 -28 -38 -47 -44 -94 -32 -31
9 -29 23 12 77 31 41 34 49 24 74 -8 23 -8 26 2 16 7 -7 17 -13 21 -13 12 0
10 38 -3 42 -7 2 -6 13 2 33 l12 30 7 -30 c8 -33 13 -25 10 18 -1 16 4 27 11
27 7 0 4 6 -7 14 -10 8 -16 18 -11 22 4 4 7 2 7 -4 0 -7 5 -12 11 -12 5 0 8 4
4 10 -10 16 28 48 58 49 19 1 27 -4 28 -16z m829 -93 c0 -5 -2 -10 -4 -10 -3
0 -8 5 -11 10 -3 6 -1 10 4 10 6 0 11 -4 11 -10z m-117 -47 c7 3 11 10 9 17
-1 6 11 2 27 -9 28 -21 29 -21 34 -1 3 11 11 20 19 20 10 0 9 -3 -2 -10 -12
-8 -12 -10 -1 -10 8 0 20 -8 27 -17 12 -16 15 -16 25 -3 9 13 10 12 5 -2 -7
-24 4 -54 14 -38 4 7 13 9 20 5 9 -6 9 -9 -1 -16 -21 -13 7 -12 32 1 11 6 19
7 19 1 0 -5 -8 -12 -17 -16 -17 -6 -17 -7 0 -19 19 -14 23 -36 7 -36 -5 0 -10
7 -10 15 0 8 -6 15 -14 15 -20 0 -30 -19 -14 -25 9 -4 12 -20 10 -50 -4 -50
-13 -56 -37 -22 l-17 22 7 -22 c5 -19 2 -23 -15 -23 -15 0 -20 5 -17 15 8 19
-10 30 -27 16 -17 -14 -46 -4 -40 13 3 7 -7 18 -21 24 -27 13 -34 42 -10 42 8
0 15 -9 15 -19 0 -17 6 -20 39 -18 33 1 37 3 23 13 -13 9 -19 9 -25 1 -5 -7
-6 0 -3 16 6 26 5 27 -39 27 -44 0 -60 15 -30 26 22 9 18 24 -5 24 -11 0 -20
-6 -20 -12 0 -7 -5 -5 -11 5 -8 14 -7 23 5 36 9 10 17 24 17 32 1 8 3 7 6 -4
3 -10 10 -16 16 -14z m227 -9 c0 -8 -4 -12 -10 -9 -5 3 -10 10 -10 16 0 5 5 9
10 9 6 0 10 -7 10 -16z m110 5 c0 -5 -7 -9 -16 -9 -12 0 -15 -9 -13 -37 5 -83
2 -93 -33 -94 l-33 -1 33 -9 c34 -10 46 -31 12 -22 -25 7 -51 -13 -43 -33 3
-9 -2 -14 -16 -14 -24 0 -25 4 -11 31 7 13 7 19 0 19 -23 0 -8 30 18 36 48 10
52 13 52 33 0 11 4 22 9 25 12 8 2 46 -12 46 -5 0 -15 -6 -21 -14 -10 -13 -13
-13 -24 0 -11 12 -10 15 5 21 10 4 21 12 25 18 9 14 68 18 68 4z m0 -49 c0 -5
-4 -10 -10 -10 -5 0 -10 5 -10 10 0 6 5 10 10 10 6 0 10 -4 10 -10z m-1349
-33 c18 -14 32 -57 18 -57 -5 0 -9 5 -9 10 0 6 -6 10 -14 10 -8 0 -17 7 -20
16 -13 35 -4 43 25 21z m1429 -17 c0 -5 -5 -10 -11 -10 -5 0 -7 5 -4 10 3 6 8
10 11 10 2 0 4 -4 4 -10z m-1352 -52 c-2 -6 -10 -14 -16 -16 -7 -2 -10 2 -6
12 7 18 28 22 22 4z m1242 -58 c0 -5 -5 -10 -11 -10 -5 0 -7 5 -4 10 3 6 8 10
11 10 2 0 4 -4 4 -10z m-243 -6 c-3 -3 -12 -4 -19 -1 -8 3 -5 6 6 6 11 1 17
-2 13 -5z m877 -300 c-15 -8 -32 -13 -38 -11 -6 2 2 11 19 19 16 9 34 14 38
11 5 -3 -4 -12 -19 -19z m-472 -276 c-7 -7 -12 -8 -12 -2 0 14 12 26 19 19 2
-3 -1 -11 -7 -17z m-1762 -18 c0 -5 -2 -10 -4 -10 -3 0 -8 5 -11 10 -3 6 -1
10 4 10 6 0 11 -4 11 -10z m1677 -77 c-9 -9 -20 -14 -24 -10 -3 4 2 14 13 21
25 19 33 10 11 -11z m-1667 -113 c0 -5 -4 -10 -10 -10 -5 0 -10 5 -10 10 0 6
5 10 10 10 6 0 10 -4 10 -10z m7 -33 c-3 -7 -10 -11 -16 -9 -6 1 -11 -5 -11
-13 0 -8 -4 -15 -10 -15 -10 0 -14 32 -5 41 10 11 46 7 42 -4z m43 3 c0 -5 -5
-10 -11 -10 -5 0 -7 5 -4 10 3 6 8 10 11 10 2 0 4 -4 4 -10z m1190 -190 c0 -5
-4 -10 -10 -10 -5 0 -10 5 -10 10 0 6 5 10 10 10 6 0 10 -4 10 -10z m-1428
-462 c-9 -9 -15 -9 -24 0 -9 9 -7 12 12 12 19 0 21 -3 12 -12z m15 -24 c-3 -3
-12 -4 -19 -1 -8 3 -5 6 6 6 11 1 17 -2 13 -5z m323 -298 c0 -9 -30 -14 -35
-6 -4 6 3 10 14 10 12 0 21 -2 21 -4z m40 -276 c0 -13 -7 -20 -20 -20 -19 0
-19 1 -2 19 22 25 22 25 22 1z m-493 -376 c-3 -3 -12 -4 -19 -1 -8 3 -5 6 6 6
11 1 17 -2 13 -5z m-5243 -489 c22 -33 20 -78 -4 -100 -18 -16 -25 -17 -60 -6
-47 14 -62 41 -53 95 6 35 6 36 53 36 40 0 50 -4 64 -25z m1282 -428 c-22 -40
-69 -119 -106 -177 -36 -58 -78 -126 -93 -152 -15 -27 -30 -48 -33 -48 -6 0
17 45 86 165 32 55 81 147 109 204 40 79 55 101 64 92 9 -9 3 -29 -27 -84z
m369 -134 c30 -19 45 -35 45 -48 0 -34 -181 -547 -201 -571 -9 -11 -16 -11
-38 1 -52 26 -56 39 -32 101 11 31 21 61 21 68 0 13 -132 106 -150 106 -6 0
-31 -19 -56 -42 -39 -36 -48 -40 -71 -32 -37 13 -51 38 -32 60 35 42 444 383
461 384 4 0 28 -12 53 -27z m1569 -156 c8 -12 3 -45 -15 -122 -15 -58 -25
-105 -22 -105 2 0 38 29 80 65 42 36 83 65 92 65 23 0 61 -28 61 -45 0 -8 -22
-49 -49 -92 -26 -43 -59 -98 -72 -123 -26 -47 -55 -63 -66 -35 -6 18 35 107
82 178 14 20 22 37 17 37 -5 0 -45 -36 -90 -80 -44 -44 -85 -80 -89 -80 -18 0
-33 25 -33 55 0 17 9 63 20 103 30 109 24 115 -26 27 -57 -101 -68 -113 -88
-95 -9 7 -16 16 -16 20 0 11 129 230 148 253 13 15 18 15 36 4 11 -8 25 -21
30 -30z m-2181 -112 c-3 -9 -8 -14 -10 -11 -3 3 -2 9 2 15 9 16 15 13 8 -4z
m1013 -8 l27 -24 -36 -64 c-20 -35 -91 -152 -156 -259 -125 -205 -141 -221
-182 -184 -10 9 -19 22 -19 29 0 7 42 81 93 166 52 85 109 179 127 209 76 126
93 150 105 150 8 0 26 -11 41 -23z m1453 -40 c8 -10 7 -24 -4 -53 -7 -21 -16
-51 -20 -66 -6 -32 -31 -37 -40 -8 -12 39 19 140 44 140 5 0 14 -6 20 -13z
m101 -112 c0 -14 -132 -259 -149 -278 -4 -4 -18 1 -31 11 l-23 19 63 114 c89
160 97 171 121 159 10 -6 19 -17 19 -25z m-1264 -58 l27 -24 -48 -84 c-79
-137 -155 -282 -151 -287 3 -2 29 18 58 46 70 66 270 202 297 202 36 0 101
-47 101 -73 0 -12 -24 -65 -53 -117 -28 -53 -74 -137 -102 -188 -80 -149 -139
-245 -152 -249 -6 -2 -26 9 -43 24 l-31 28 114 205 c63 113 113 206 112 208
-4 4 -140 -95 -274 -198 -57 -44 -113 -80 -124 -80 -26 0 -77 47 -77 71 0 9
46 97 101 196 56 98 115 203 132 233 41 73 66 110 77 110 5 0 21 -11 36 -23z
m-1718 -525 c6 -18 -15 -14 -22 4 -4 10 -1 14 6 12 6 -2 14 -10 16 -16z m-41
-34 c-3 -8 -6 -5 -6 6 -1 11 2 17 5 13 3 -3 4 -12 1 -19z m-40 -70 c-3 -8 -6
-5 -6 6 -1 11 2 17 5 13 3 -3 4 -12 1 -19z m14 -35 c-8 -15 -10 -15 -11 -2 0
17 10 32 18 25 2 -3 -1 -13 -7 -23z"/>
<path d="M7801 4961 c-10 -6 -10 -10 -1 -16 13 -8 24 -1 19 14 -3 6 -10 7 -18
2z"/>
<path d="M7760 4950 c0 -5 5 -10 10 -10 6 0 10 5 10 10 0 6 -4 10 -10 10 -5 0
-10 -4 -10 -10z"/>
<path d="M7780 4909 c0 -12 5 -19 12 -17 18 6 20 25 3 31 -10 5 -15 0 -15 -14z"/>
<path d="M2405 1179 c-94 -71 -155 -124 -155 -133 0 -12 80 -66 97 -66 6 0 16
15 23 33 7 17 26 63 42 100 16 38 28 73 26 78 -2 6 -17 0 -33 -12z"/>
<path d="M8340 9720 c0 -5 5 -10 10 -10 6 0 10 5 10 10 0 6 -4 10 -10 10 -5 0
-10 -4 -10 -10z"/>
<path d="M8970 9485 c0 -8 -7 -15 -16 -15 -9 0 -14 -6 -11 -12 5 -16 68 -17
84 -2 14 14 7 24 -19 24 -10 0 -18 5 -18 10 0 6 -4 10 -10 10 -5 0 -10 -7 -10
-15z"/>
<path d="M7370 9060 c20 -13 33 -13 25 0 -3 6 -14 10 -23 10 -15 0 -15 -2 -2
-10z"/>
<path d="M9890 8959 c0 -21 11 -25 83 -34 48 -6 57 -5 57 8 0 22 -57 47 -102
45 -29 -1 -38 -5 -38 -19z"/>
<path d="M10008 8903 c6 -2 18 -2 25 0 6 3 1 5 -13 5 -14 0 -19 -2 -12 -5z"/>
<path d="M5852 8647 c-8 -10 -6 -16 10 -26 19 -12 23 -11 34 4 8 10 11 22 8
26 -8 13 -40 11 -52 -4z"/>
<path d="M6150 8220 c0 -11 5 -20 10 -20 6 0 10 9 10 20 0 11 -4 20 -10 20 -5
0 -10 -9 -10 -20z"/>
<path d="M6137 8177 c-8 -7 -17 -21 -19 -32 -2 -11 -16 -26 -31 -33 -25 -12
-26 -17 -21 -52 6 -36 4 -41 -18 -49 -39 -15 -58 -40 -58 -75 0 -63 -43 -146
-75 -146 -6 0 -19 -6 -28 -13 -17 -11 -17 -19 -2 -120 l16 -107 -27 -55 c-15
-29 -31 -53 -35 -52 -3 1 -21 -11 -38 -26 -30 -26 -32 -32 -29 -85 l3 -57 37
1 c42 1 57 14 87 70 11 21 41 61 66 87 38 40 43 51 35 68 -6 10 -7 19 -3 19 4
0 2 4 -6 9 -14 9 -13 23 10 111 6 21 25 40 42 40 12 0 14 7 8 27 -11 40 11
122 38 144 25 21 99 26 129 10 10 -5 33 -6 51 -3 30 7 36 14 57 72 14 35 34
74 45 86 l21 22 -38 40 c-33 36 -40 39 -67 31 -46 -13 -74 -2 -81 32 -3 17
-10 28 -15 25 -5 -4 -16 0 -24 8 -11 12 -18 12 -30 3z"/>
<path d="M5326 7819 c-19 -17 -25 -30 -21 -42 9 -22 21 -22 47 3 17 15 19 24
12 41 l-10 22 -28 -24z"/>
<path d="M6177 7488 c-7 -23 5 -48 23 -48 22 0 31 32 14 48 -17 15 -31 15 -37
0z"/>
<path d="M7990 7410 c0 -5 5 -10 10 -10 6 0 10 5 10 10 0 6 -4 10 -10 10 -5 0
-10 -4 -10 -10z"/>
<path d="M6828 7363 c7 -3 16 -2 19 1 4 3 -2 6 -13 5 -11 0 -14 -3 -6 -6z"/>
<path d="M7058 7343 c7 -3 16 -2 19 1 4 3 -2 6 -13 5 -11 0 -14 -3 -6 -6z"/>
<path d="M7967 7303 c-12 -12 -7 -22 8 -17 8 4 15 10 15 15 0 11 -14 12 -23 2z"/>
<path d="M7850 7270 c0 -5 5 -10 10 -10 6 0 10 5 10 10 0 6 -4 10 -10 10 -5 0
-10 -4 -10 -10z"/>
<path d="M7921 7264 c0 -11 3 -14 6 -6 3 7 2 16 -1 19 -3 4 -6 -2 -5 -13z"/>
<path d="M6710 7160 c0 -5 5 -10 11 -10 5 0 7 5 4 10 -3 6 -8 10 -11 10 -2 0
-4 -4 -4 -10z"/>
<path d="M6214 7118 c-16 -12 -38 -33 -49 -46 -11 -14 -41 -50 -67 -81 -28
-32 -51 -71 -54 -90 -4 -19 -15 -49 -25 -65 -14 -24 -59 -230 -59 -265 0 -3
12 14 27 39 26 44 75 112 101 139 21 22 47 80 78 174 21 65 39 100 67 130 56
61 42 111 -19 65z"/>
<path d="M8200 7030 c0 -5 4 -10 9 -10 6 0 13 5 16 10 3 6 -1 10 -9 10 -9 0
-16 -4 -16 -10z"/>
<path d="M4760 7011 c-14 -27 -13 -41 5 -48 22 -8 46 27 34 49 -13 23 -26 23
-39 -1z"/>
<path d="M8253 6943 c9 -2 23 -2 30 0 6 3 -1 5 -18 5 -16 0 -22 -2 -12 -5z"/>
<path d="M8277 6820 c-4 -15 0 -20 14 -20 12 0 19 7 19 20 0 11 -6 20 -14 20
-7 0 -16 -9 -19 -20z"/>
<path d="M8332 6823 c2 -9 13 -18 25 -19 22 -4 22 -3 6 16 -21 24 -36 26 -31
3z"/>
<path d="M8071 6714 c0 -11 3 -14 6 -6 3 7 2 16 -1 19 -3 4 -6 -2 -5 -13z"/>
<path d="M8095 6710 c3 -5 8 -10 11 -10 2 0 4 5 4 10 0 6 -5 10 -11 10 -5 0
-7 -4 -4 -10z"/>
<path d="M8225 6710 c-8 -13 5 -13 25 0 13 8 13 10 -2 10 -9 0 -20 -4 -23 -10z"/>
<path d="M7700 6690 c0 -5 5 -10 11 -10 5 0 7 5 4 10 -3 6 -8 10 -11 10 -2 0
-4 -4 -4 -10z"/>
<path d="M6082 6540 c0 -14 2 -19 5 -12 2 6 2 18 0 25 -3 6 -5 1 -5 -13z"/>
<path d="M3697 6523 c-3 -16 -8 -37 -12 -49 -5 -17 0 -24 29 -38 43 -20 52
-16 58 26 4 26 -1 38 -23 60 -35 35 -45 35 -52 1z"/>
<path d="M6002 6460 c-12 -12 -22 -28 -23 -38 -3 -41 4 -68 21 -86 18 -18 19
-18 30 25 7 24 19 58 26 76 8 17 14 34 14 37 0 14 -48 4 -68 -14z"/>
<path d="M945 6160 c-3 -5 3 -10 14 -10 12 0 21 5 21 10 0 6 -6 10 -14 10 -8
0 -18 -4 -21 -10z"/>
<path d="M2622 6051 c-19 -11 -17 -109 2 -156 9 -21 16 -46 16 -56 0 -25 38
-87 61 -100 11 -5 19 -16 19 -23 0 -7 9 -21 21 -32 21 -18 21 -18 41 9 11 15
28 27 39 27 50 0 71 132 30 189 -12 17 -27 31 -33 31 -6 0 -27 14 -47 30 -40
34 -43 37 -88 68 -34 24 -42 26 -61 13z"/>
<path d="M5676 5962 c-23 -15 -44 -41 -50 -59 -6 -17 -21 -44 -33 -60 -13 -15
-23 -31 -23 -36 0 -10 64 -37 106 -44 18 -3 42 -14 54 -25 25 -23 37 -17 48
25 7 25 3 43 -15 82 -12 28 -23 64 -23 81 0 16 -6 38 -12 47 -12 15 -17 14
-52 -11z"/>
<path d="M2830 5695 c0 -8 7 -15 15 -15 9 0 12 6 9 15 -4 8 -10 15 -15 15 -5
0 -9 -7 -9 -15z"/>
<path d="M930 5692 c0 -14 36 -52 49 -52 18 0 13 17 -11 40 -23 21 -38 26 -38
12z"/>
<path d="M2826 5625 c-19 -29 -20 -36 -3 -59 12 -17 15 -16 45 9 26 22 30 30
21 42 -27 31 -46 34 -63 8z"/>
<path d="M6694 5533 c-18 -6 -4 -44 15 -42 36 3 52 -2 58 -18 4 -10 19 -31 33
-46 22 -22 29 -25 38 -15 12 15 -1 93 -20 115 -10 12 -94 16 -124 6z"/>
<path d="M5552 5475 c-41 -52 -6 -97 85 -108 45 -5 53 4 53 67 0 25 -3 27 -24
22 -18 -4 -32 1 -52 19 -33 31 -38 31 -62 0z"/>
<path d="M580 4924 c0 -8 5 -12 10 -9 6 3 10 10 10 16 0 5 -4 9 -10 9 -5 0
-10 -7 -10 -16z"/>
<path d="M8810 4780 c0 -19 3 -21 12 -12 9 9 9 15 0 24 -9 9 -12 7 -12 -12z"/>
<path d="M1120 4661 c0 -15 6 -21 21 -21 14 0 19 5 17 17 -5 26 -38 29 -38 4z"/>
<path d="M8560 4539 c0 -5 5 -7 10 -4 6 3 10 8 10 11 0 2 -4 4 -10 4 -5 0 -10
-5 -10 -11z"/>
<path d="M1320 4491 c0 -6 5 -13 10 -16 6 -3 10 1 10 9 0 9 -4 16 -10 16 -5 0
-10 -4 -10 -9z"/>
<path d="M8498 4492 c-10 -2 -18 -7 -18 -12 0 -5 8 -7 18 -3 14 5 15 3 5 -8
-15 -15 -17 -29 -5 -29 12 0 31 36 24 46 -4 6 -15 8 -24 6z"/>
<path d="M8440 4430 c0 -5 5 -10 11 -10 5 0 7 5 4 10 -3 6 -8 10 -11 10 -2 0
-4 -4 -4 -10z"/>
<path d="M8350 4370 c0 -5 7 -10 16 -10 8 0 12 5 9 10 -3 6 -10 10 -16 10 -5
0 -9 -4 -9 -10z"/>
<path d="M8270 4300 c0 -5 5 -10 10 -10 6 0 10 5 10 10 0 6 -4 10 -10 10 -5 0
-10 -4 -10 -10z"/>
<path d="M8231 4264 c0 -11 3 -14 6 -6 3 7 2 16 -1 19 -3 4 -6 -2 -5 -13z"/>
<path d="M5860 4260 c0 -5 7 -7 15 -4 8 4 15 8 15 10 0 2 -7 4 -15 4 -8 0 -15
-4 -15 -10z"/>
<path d="M8185 4200 c-3 -5 1 -10 9 -10 9 0 16 5 16 10 0 6 -4 10 -9 10 -6 0
-13 -4 -16 -10z"/>
<path d="M6045 3480 c-3 -5 3 -10 14 -10 12 0 21 5 21 10 0 6 -6 10 -14 10 -8
0 -18 -4 -21 -10z"/>
<path d="M6001 3454 c0 -11 3 -14 6 -6 3 7 2 16 -1 19 -3 4 -6 -2 -5 -13z"/>
<path d="M6110 3330 c0 -5 9 -10 21 -10 11 0 17 5 14 10 -3 6 -13 10 -21 10
-8 0 -14 -4 -14 -10z"/>
<path d="M6160 3130 c0 -5 5 -10 10 -10 6 0 10 5 10 10 0 6 -4 10 -10 10 -5 0
-10 -4 -10 -10z"/>
<path d="M6391 3058 c-1 -13 -9 -18 -27 -18 -22 0 -24 -3 -15 -14 11 -13 47
-11 55 3 2 3 0 15 -5 26 -6 17 -8 17 -8 3z"/>
<path d="M6430 2925 c0 -22 -6 -38 -15 -41 -21 -8 -19 -21 5 -27 16 -4 20 -1
18 12 -2 10 3 25 10 34 8 9 11 25 7 37 -10 32 -25 23 -25 -15z"/>
<path d="M6401 2914 c0 -11 3 -14 6 -6 3 7 2 16 -1 19 -3 4 -6 -2 -5 -13z"/>
<path d="M1201 2802 c-19 -4 -36 -12 -38 -18 -5 -14 64 -47 137 -65 30 -8 75
-24 100 -36 44 -23 58 -19 46 13 -3 8 -10 13 -15 10 -5 -3 -11 1 -15 9 -3 8
-12 12 -20 9 -10 -4 -15 2 -18 18 -6 41 -102 74 -177 60z"/>
<path d="M6495 2700 c-8 -13 15 -24 27 -12 6 6 4 11 -6 15 -8 3 -18 2 -21 -3z"/>
<path d="M6354 2561 c3 -5 15 -7 26 -4 28 7 25 13 -6 13 -14 0 -23 -4 -20 -9z"/>
</g>
</svg>
